<?xml version="1.0" standalone="no"?>
<!DOCTYPE svg PUBLIC "-//W3C//DTD SVG 20010904//EN"
 "http://www.w3.org/TR/2001/REC-SVG-20010904/DTD/svg10.dtd">
<svg version="1.0" xmlns="http://www.w3.org/2000/svg"
 width="388.000000pt" height="322.000000pt" viewBox="0 0 388.000000 322.000000"
 preserveAspectRatio="xMidYMid meet">

<g transform="translate(0.000000,322.000000) scale(0.100000,-0.100000)"
fill="#000000" stroke="none">
<path d="M675 1615 l0 -1055 378 -2 377 -3 0 83 0 82 -299 0 -299 0 -1 90 -1
90 1030 0 1030 0 0 -90 0 -90 -297 -2 -298 -3 -3 -77 -4 -78 381 0 381 0 0
850 c0 468 -2 850 -5 850 -3 0 -39 -19 -80 -42 l-75 -42 0 -47 0 -47 -187 -7
-188 -8 -112 -64 c-62 -36 -113 -65 -113 -66 0 -1 135 -1 300 1 l300 3 0 -101
0 -100 -464 0 -465 0 -47 -32 -47 -32 -61 32 -61 33 -458 -1 -458 0 3 98 3 97
298 0 c163 0 297 2 297 5 0 3 -14 11 -30 19 -17 7 -76 38 -131 68 l-101 54
-165 2 -165 2 -1 153 c-1 83 -2 152 -1 152 0 0 122 -70 270 -156 148 -86 328
-188 399 -227 72 -38 162 -91 200 -117 39 -26 89 -59 112 -73 l41 -26 255 152
c227 135 706 408 874 499 l63 33 0 98 c0 54 -3 96 -7 94 -5 -2 -266 -156 -581
-341 -316 -186 -580 -340 -587 -343 -8 -2 -90 40 -182 95 -322 190 -992 582
-1005 587 -11 4 -13 -181 -13 -1050z m2215 -120 l0 -95 -1029 0 -1029 0 1 95
1 95 1028 0 1028 0 0 -95z m0 -345 l0 -100 -1028 0 -1027 0 -3 91 c-1 49 0 94
3 100 4 5 400 9 1031 9 l1024 0 0 -100z"/>
<path d="M3148 1633 l3 -118 46 -47 46 -47 -46 -51 -46 -51 -3 -109 c-2 -61 0
-109 4 -108 5 2 75 75 157 163 l149 160 -112 115 c-61 63 -131 136 -154 163
-23 26 -43 47 -45 47 -1 0 -1 -53 1 -117z"/>
</g>
</svg>
